<?xml version="1.0" encoding="UTF-8"?>
<!DOCTYPE svg PUBLIC "-//W3C//DTD SVG 1.1//EN" "http://www.w3.org/Graphics/SVG/1.1/DTD/svg11.dtd">
<!-- Creator: CorelDRAW -->
<svg xmlns="http://www.w3.org/2000/svg" xml:space="preserve" width="2048px" height="2048px" style="shape-rendering:geometricPrecision; text-rendering:geometricPrecision; image-rendering:optimizeQuality; fill-rule:evenodd; clip-rule:evenodd"
viewBox="0 0 2048 2048"
 xmlns:xlink="http://www.w3.org/1999/xlink">
 <defs>
  <style type="text/css">
   <![CDATA[
    .fil1 {fill:none}
    .fil0 {fill:#212121;fill-rule:nonzero}
   ]]>
  </style>
 </defs>
 <g id="Layer_x0020_1">
  <metadata id="CorelCorpID_0Corel-Layer"/>
  <g id="_442651776">
   <path id="_442653336" class="fil0" d="M350.778 442.758l1346.44 0c43.0359,0 82.1398,17.5843 110.467,45.9107 28.3264,28.3276 45.9107,67.4304 45.9107,110.466l0 1036.49c0,43.0359 -17.5843,82.1386 -45.9107,110.466 -28.3276,28.3264 -67.4315,45.9107 -110.467,45.9107l-1346.44 0c-43.0359,0 -82.1398,-17.5843 -110.467,-45.9107 -28.3264,-28.3276 -45.9107,-67.4304 -45.9107,-110.466l0 -1036.49c0,-43.0359 17.5843,-82.1386 45.9107,-110.466 28.3276,-28.3264 67.4315,-45.9107 110.467,-45.9107zm1346.44 64.0016l-1346.44 0c-25.3701,0 -48.4595,10.4032 -65.217,27.1595 -16.7563,16.7575 -27.1595,39.8457 -27.1595,65.2158l0 1036.49c0,25.3701 10.4032,48.4583 27.1595,65.2158 16.7575,16.7563 39.8469,27.1595 65.217,27.1595l1346.44 0c25.3701,0 48.4595,-10.4032 65.217,-27.1595 16.7563,-16.7575 27.1595,-39.8457 27.1595,-65.2158l0 -1036.49c0,-25.3701 -10.4032,-48.4583 -27.1595,-65.2158 -16.7575,-16.7563 -39.8469,-27.1595 -65.217,-27.1595z"/>
   <path id="_442653984" class="fil0" d="M226.401 774.696c-17.6728,0 -32.0008,14.328 -32.0008,32.0008 0,17.6728 14.328,32.0008 32.0008,32.0008l1595.2 0c17.6728,0 32.0008,-14.328 32.0008,-32.0008 0,-17.6728 -14.328,-32.0008 -32.0008,-32.0008l-1595.2 0z"/>
   <path id="_442653720" class="fil0" d="M512.735 532.838c29.7886,0 56.7615,12.078 76.2875,31.6028 19.5236,19.526 31.6028,46.4989 31.6028,76.2875 0,29.7886 -12.0791,56.7626 -31.6028,76.2863 -19.526,19.5248 -46.4989,31.6028 -76.2875,31.6028 -29.7886,0 -56.7626,-12.0791 -76.2863,-31.6028 -19.5248,-19.526 -31.6028,-46.4989 -31.6028,-76.2863 0,-29.7886 12.0791,-56.7615 31.6028,-76.2875 19.5236,-19.5236 46.4977,-31.6028 76.2863,-31.6028zm31.037 76.8532c-7.93938,-7.93938 -18.9142,-12.8516 -31.037,-12.8516 -12.1228,0 -23.0965,4.91221 -31.0359,12.8516 -7.93938,7.93938 -12.8516,18.9142 -12.8516,31.037 0,12.1228 4.91221,23.0965 12.8516,31.0359 7.93938,7.93938 18.913,12.8516 31.0359,12.8516 12.1228,0 23.0977,-4.91221 31.037,-12.8516 7.93938,-7.93938 12.8516,-18.913 12.8516,-31.0359 0,-12.1228 -4.91221,-23.0977 -12.8516,-31.037z"/>
   <path id="_442653960" class="fil0" d="M1535.27 532.838c29.7886,0 56.7626,12.0791 76.2863,31.6028 19.5236,19.526 31.6028,46.4989 31.6028,76.2875 0,29.7874 -12.078,56.7603 -31.6028,76.2863 -19.5236,19.5236 -46.4977,31.6028 -76.2863,31.6028 -29.7886,0 -56.7615,-12.078 -76.2875,-31.6028 -19.5236,-19.5236 -31.6028,-46.4977 -31.6028,-76.2863 0,-29.7886 12.0791,-56.7615 31.6028,-76.2875 19.526,-19.5248 46.4989,-31.6028 76.2875,-31.6028zm31.0359 76.8532c-7.93938,-7.93938 -18.913,-12.8516 -31.0359,-12.8516 -12.1228,0 -23.0977,4.91221 -31.037,12.8516 -7.93938,7.93938 -12.8516,18.9142 -12.8516,31.037 0,12.1228 4.91221,23.0965 12.8516,31.0359 7.93938,7.93938 18.9142,12.8516 31.037,12.8516 12.1228,0 23.0965,-4.91221 31.0359,-12.8516 7.93938,-7.93938 12.8516,-18.913 12.8516,-31.0359 0,-12.1228 -4.91221,-23.0977 -12.8516,-31.037z"/>
   <path id="_442653888" class="fil0" d="M544.737 287.999c0,-17.6728 -14.328,-32.0008 -32.0008,-32.0008 -17.6728,0 -32.0008,14.328 -32.0008,32.0008l0 276.975c0,17.6728 14.328,32.0008 32.0008,32.0008 17.6728,0 32.0008,-14.328 32.0008,-32.0008l0 -276.975z"/>
   <path id="_442653288" class="fil0" d="M1567.26 287.999c0,-17.6728 -14.328,-32.0008 -32.0008,-32.0008 -17.6728,0 -32.0008,14.328 -32.0008,32.0008l0 276.975c0,17.6728 14.328,32.0008 32.0008,32.0008 17.6728,0 32.0008,-14.328 32.0008,-32.0008l0 -276.975z"/>
   <path id="_442653216" class="fil0" d="M935.691 940.389c-17.6728,0 -32.0008,14.328 -32.0008,32.0008 0,17.6728 14.328,32.0008 32.0008,32.0008l114.428 0c17.6728,0 32.0008,-14.328 32.0008,-32.0008 0,-17.6728 -14.328,-32.0008 -32.0008,-32.0008l-114.428 0z"/>
   <path id="_442652880" class="fil0" d="M1241.66 940.389c-17.6728,0 -32.0008,14.328 -32.0008,32.0008 0,17.6728 14.328,32.0008 32.0008,32.0008l114.428 0c17.6728,0 32.0008,-14.328 32.0008,-32.0008 0,-17.6728 -14.328,-32.0008 -32.0008,-32.0008l-114.428 0z"/>
   <path id="_442653168" class="fil0" d="M1531.88 940.389c-17.6728,0 -32.0008,14.328 -32.0008,32.0008 0,17.6728 14.328,32.0008 32.0008,32.0008l114.428 0c17.6728,0 32.0008,-14.328 32.0008,-32.0008 0,-17.6728 -14.328,-32.0008 -32.0008,-32.0008l-114.428 0z"/>
   <path id="_442653120" class="fil0" d="M401.694 1147.69c-17.6728,0 -32.0008,14.328 -32.0008,32.0008 0,17.6728 14.328,32.0008 32.0008,32.0008l114.428 0c17.6728,0 32.0008,-14.328 32.0008,-32.0008 0,-17.6728 -14.328,-32.0008 -32.0008,-32.0008l-114.428 0z"/>
   <path id="_442652784" class="fil0" d="M668.692 1147.69c-17.6728,0 -32.0008,14.328 -32.0008,32.0008 0,17.6728 14.328,32.0008 32.0008,32.0008l114.429 0c17.6728,0 32.0008,-14.328 32.0008,-32.0008 0,-17.6728 -14.328,-32.0008 -32.0008,-32.0008l-114.429 0z"/>
   <path id="_442653072" class="fil0" d="M935.691 1147.69c-17.6728,0 -32.0008,14.328 -32.0008,32.0008 0,17.6728 14.328,32.0008 32.0008,32.0008l114.428 0c17.6728,0 32.0008,-14.328 32.0008,-32.0008 0,-17.6728 -14.328,-32.0008 -32.0008,-32.0008l-114.428 0z"/>
   <path id="_442652736" class="fil0" d="M1241.66 1147.69c-17.6728,0 -32.0008,14.328 -32.0008,32.0008 0,17.6728 14.328,32.0008 32.0008,32.0008l114.428 0c17.6728,0 32.0008,-14.328 32.0008,-32.0008 0,-17.6728 -14.328,-32.0008 -32.0008,-32.0008l-114.428 0z"/>
   <path id="_442652208" class="fil0" d="M1531.88 1147.69c-17.6728,0 -32.0008,14.328 -32.0008,32.0008 0,17.6728 14.328,32.0008 32.0008,32.0008l114.428 0c17.6728,0 32.0008,-14.328 32.0008,-32.0008 0,-17.6728 -14.328,-32.0008 -32.0008,-32.0008l-114.428 0z"/>
   <path id="_442651992" class="fil0" d="M401.694 1354.99c-17.6728,0 -32.0008,14.328 -32.0008,32.0008 0,17.6728 14.328,32.0008 32.0008,32.0008l114.428 0c17.6728,0 32.0008,-14.328 32.0008,-32.0008 0,-17.6728 -14.328,-32.0008 -32.0008,-32.0008l-114.428 0z"/>
   <path id="_442651872" class="fil0" d="M668.692 1354.99c-17.6728,0 -32.0008,14.328 -32.0008,32.0008 0,17.6728 14.328,32.0008 32.0008,32.0008l114.429 0c17.6728,0 32.0008,-14.328 32.0008,-32.0008 0,-17.6728 -14.328,-32.0008 -32.0008,-32.0008l-114.429 0z"/>
   <path id="_442652088" class="fil0" d="M935.691 1354.99c-17.6728,0 -32.0008,14.328 -32.0008,32.0008 0,17.6728 14.328,32.0008 32.0008,32.0008l114.428 0c17.6728,0 32.0008,-14.328 32.0008,-32.0008 0,-17.6728 -14.328,-32.0008 -32.0008,-32.0008l-114.428 0z"/>
   <path id="_442651968" class="fil0" d="M1241.66 1354.99c-17.6728,0 -32.0008,14.328 -32.0008,32.0008 0,17.6728 14.328,32.0008 32.0008,32.0008l114.428 0c17.6728,0 32.0008,-14.328 32.0008,-32.0008 0,-17.6728 -14.328,-32.0008 -32.0008,-32.0008l-114.428 0z"/>
   <path id="_442652424" class="fil0" d="M1531.88 1354.99c-17.6728,0 -32.0008,14.328 -32.0008,32.0008 0,17.6728 14.328,32.0008 32.0008,32.0008l114.428 0c17.6728,0 32.0008,-14.328 32.0008,-32.0008 0,-17.6728 -14.328,-32.0008 -32.0008,-32.0008l-114.428 0z"/>
   <path id="_442652064" class="fil0" d="M401.694 1562.29c-17.6728,0 -32.0008,14.328 -32.0008,32.0008 0,17.6728 14.328,32.0008 32.0008,32.0008l114.428 0c17.6728,0 32.0008,-14.328 32.0008,-32.0008 0,-17.6728 -14.328,-32.0008 -32.0008,-32.0008l-114.428 0z"/>
   <path id="_442652256" class="fil0" d="M668.692 1562.29c-17.6728,0 -32.0008,14.328 -32.0008,32.0008 0,17.6728 14.328,32.0008 32.0008,32.0008l114.429 0c17.6728,0 32.0008,-14.328 32.0008,-32.0008 0,-17.6728 -14.328,-32.0008 -32.0008,-32.0008l-114.429 0z"/>
   <path id="_442652520" class="fil0" d="M935.691 1562.29c-17.6728,0 -32.0008,14.328 -32.0008,32.0008 0,17.6728 14.328,32.0008 32.0008,32.0008l114.428 0c17.6728,0 32.0008,-14.328 32.0008,-32.0008 0,-17.6728 -14.328,-32.0008 -32.0008,-32.0008l-114.428 0z"/>
  </g>
 </g>
 <rect class="fil1" width="2048" height="2048"/>
</svg>
