<?xml version="1.0" encoding="UTF-8"?><svg id="Layer_2" xmlns="http://www.w3.org/2000/svg" viewBox="0 0 230.11 73.87"><defs><style>.cls-1{fill:#007ca6;stroke-width:0px;}</style></defs><g id="Layer_1-2"><path class="cls-1" d="M68.85,68.26c-2.88,2.94-7.24,4.14-12.77,4.82-5.49.65-12.16.77-18.82.79-6.66-.02-13.33-.15-18.82-.79-5.53-.68-9.89-1.88-12.77-4.82-2.96-2.86-4.17-7.18-4.86-12.66C.15,50.15.02,43.54,0,36.93c.02-6.61.15-13.22.8-18.66.69-5.48,1.89-9.81,4.86-12.66C8.54,2.67,12.9,1.47,18.43.79,23.92.15,30.59.02,37.25,0c6.66.02,13.33.15,18.82.79,5.53.68,9.89,1.88,12.77,4.82,2.96,2.86,4.17,7.18,4.86,12.66.65,5.45.78,12.06.8,18.66-.02,6.61-.15,13.22-.8,18.66-.69,5.48-1.89,9.81-4.86,12.66ZM64.31,30.76c-.75-1.56-2.52-2.37-4.23-2.71-2.63-.52-5.35-.23-8.01.14-2.79.4-4.83.8-7.58,1.02,6.26-6.55,11.33-11.86,12.14-12.7-.54,3.12-1.71,8.77-1.85,9.16l2.28,1.29c.22-.39,3.56-13.39,3.83-15.21.09-.6-.1-1.31-.62-1.63-.3-.18-.67-.19-1.03-.18-5.73.18-17.36,4.47-17.36,4.47l1.18,1.75s5.83-1.16,10.51-1.92c-1.05,1.19-9.79,10.16-18.89,19.45.07-.11.14-.2.2-.3.06-.23.21-1.33.21-1.48.56-5.88-.87-18.54-.87-18.54l-5.1,1.44c.09,5.93.07,12.01-1.02,17.85-.36,1.9-.99,3.8-2.25,5.26-2.05,2.38-5.06,3.01-6.84.18-2.88-4.58-3.29-10.25-4.03-15.45-1.73.39-3.56.87-5.21,1.5.1,3.68.31,7.36.88,11,.56,3.61,1.92,7.28,4.7,9.68,2.17,1.88,4.43,1.92,7.01,1.45-5.43,5.53-9.36,9.55-9.36,9.55l3.37,2.09c.13.08.28.07.4-.02.84-.64,14.49-14.87,25.61-26.49-.11.88-.6,3.29.45,3.6.41.12.85,0,1.25-.13,4.09-1.2,8.42-1.81,12.63-1.13.32.05.64.11.87.35.06.06.11.14.15.22.13.35-.09.57-.3.76-3.84,3.5-8.63,5.24-13.64,6.37-.14.03-.29.06-.43,0-.13-.05-.21-.18-.28-.31-.69-1.29-.3-2.87-1.01-4.15-.23-.41-.77-.5-1.1-.45-.82.13-1.46.81-1.77,1.56-1.4,3.38-.61,11.79-.39,15.33.23,3.71,1.05,6.04,1.54,9.71.02.15.04.3.13.42.09.13.24.2.4.26.73.27,3.14-.41,3.4-.79.82-1.21.6-2.51.65-3.91.06-2.14.08-4.28.08-6.41,0-.52-.11-5.6-.76-5.6,3.8-.75,6.98-1.29,10.35-2.76,2.35-1.02,4.61-2.29,6.45-4.05,1.84-1.76,3.23-4.05,3.6-6.56.15-1.01.12-2.08-.33-3Z"/><path class="cls-1" d="M96.25,37.07c-.83.76-1.8,1.38-2.92,1.88-1.11.49-2.35.74-3.71.74-.87,0-1.84-.12-2.94-.37-1.1-.25-2.12-.73-3.07-1.46-.95-.72-1.75-1.72-2.39-2.99-.65-1.27-.97-2.92-.97-4.97v-14.38h4.59v14.38c0,1.02.16,1.89.47,2.59.32.71.73,1.28,1.25,1.71.51.43,1.1.74,1.77.94.67.2,1.35.3,2.04.3.53,0,1.14-.1,1.82-.3.68-.2,1.32-.52,1.92-.96.6-.44,1.11-1.01,1.52-1.71.42-.69.62-1.53.62-2.52v-14.43h4.84v23.68h-3.84l-1-2.13Z"/><path class="cls-1" d="M111.61,39.2h-4.84V15.52h3.84l1,2.03c.6-.69,1.31-1.29,2.14-1.8.83-.51,1.84-.77,3.04-.77.47,0,.99.06,1.57.17.58.12,1.18.31,1.79.59s1.21.66,1.77,1.14c.56.48,1.05,1.1,1.45,1.85.56-1.02,1.42-1.9,2.57-2.64s2.37-1.11,3.67-1.11c.86,0,1.78.13,2.74.4s1.86.76,2.69,1.48c.83.73,1.51,1.73,2.04,3.02s.8,2.95.8,4.99v14.33h-4.54v-14.38c0-2.04-.42-3.47-1.27-4.28s-1.97-1.21-3.37-1.21c-1.06,0-1.99.45-2.79,1.33s-1.2,2.29-1.2,4.2v14.33h-4.54v-14.38c0-2.04-.42-3.47-1.27-4.28s-1.97-1.21-3.37-1.21c-1,0-1.87.38-2.62,1.14s-1.19,1.94-1.32,3.56v15.18Z"/><path class="cls-1" d="M148.4,39.2h-4.84V15.52h3.84l1,2.03c.6-.69,1.31-1.29,2.14-1.8.83-.51,1.84-.77,3.04-.77.47,0,.99.06,1.57.17.58.12,1.18.31,1.79.59s1.21.66,1.77,1.14c.56.48,1.05,1.1,1.45,1.85.56-1.02,1.42-1.9,2.57-2.64s2.37-1.11,3.67-1.11c.86,0,1.78.13,2.74.4s1.86.76,2.69,1.48c.83.73,1.51,1.73,2.04,3.02s.8,2.95.8,4.99v14.33h-4.54v-14.38c0-2.04-.42-3.47-1.27-4.28s-1.97-1.21-3.37-1.21c-1.06,0-1.99.45-2.79,1.33s-1.2,2.29-1.2,4.2v14.33h-4.54v-14.38c0-2.04-.42-3.47-1.27-4.28s-1.97-1.21-3.37-1.21c-1,0-1.87.38-2.62,1.14s-1.19,1.94-1.32,3.56v15.18Z"/><path class="cls-1" d="M202.99,15.52v23.68h-4.09l-.75-2.72c-.83,1.09-1.89,1.91-3.19,2.47-1.3.56-2.61.84-3.94.84-1.66,0-3.22-.32-4.66-.96-1.45-.64-2.71-1.52-3.79-2.64-1.08-1.12-1.94-2.44-2.57-3.95-.63-1.52-.95-3.13-.95-4.84s.32-3.33.95-4.84c.63-1.52,1.49-2.83,2.57-3.96,1.08-1.12,2.34-2,3.79-2.64,1.45-.64,3-.96,4.66-.96,1.33,0,2.61.26,3.84.77,1.23.51,2.33,1.31,3.29,2.4l.75-2.62h4.09ZM191.03,35.54c.96,0,1.88-.21,2.74-.64.86-.43,1.61-1.01,2.24-1.75.63-.74,1.13-1.61,1.5-2.59.37-.99.55-2.04.55-3.16s-.18-2.17-.55-3.16c-.37-.99-.87-1.85-1.5-2.6-.63-.74-1.38-1.33-2.24-1.75-.87-.43-1.78-.64-2.74-.64s-1.88.21-2.74.64c-.86.43-1.61,1.01-2.24,1.75-.63.74-1.13,1.61-1.5,2.6-.37.99-.55,2.04-.55,3.16s.18,2.17.55,3.16c.37.99.86,1.85,1.5,2.59.63.74,1.38,1.33,2.24,1.75.86.43,1.78.64,2.74.64Z"/><path class="cls-1" d="M212.76,39.2h-4.84V3.11h4.84v14.58c.88-.99,1.82-1.69,2.8-2.1s2.11-.62,3.41-.62c1.66,0,3.14.32,4.45.96s2.43,1.52,3.36,2.64c.93,1.12,1.63,2.44,2.11,3.96.48,1.52.72,3.13.72,4.84v11.81h-4.84v-11.81c0-1.12-.16-2.17-.47-3.16-.32-.99-.75-1.85-1.3-2.57-.55-.72-1.18-1.29-1.89-1.71-.71-.41-1.49-.62-2.32-.62-.7,0-1.4.14-2.09.42s-1.34.73-1.92,1.36c-.58.63-1.06,1.45-1.45,2.47-.38,1.02-.57,2.26-.57,3.71v11.91Z"/><path class="cls-1" d="M78.81,67.22v-18.07h2.05l.53,1.33c.52-.52,1.12-.92,1.79-1.2.67-.29,1.44-.43,2.28-.43.9,0,1.73.17,2.5.52.76.35,1.43.82,1.98,1.43.56.6.99,1.32,1.31,2.13.31.82.47,1.69.47,2.62s-.16,1.8-.47,2.62c-.32.82-.75,1.53-1.31,2.14-.56.6-1.22,1.08-1.98,1.43s-1.6.52-2.5.52-1.66-.15-2.32-.44c-.67-.29-1.25-.72-1.75-1.27v6.67h-2.58ZM85.26,51.21c-.52,0-1.02.08-1.49.25-.47.17-.88.44-1.23.8-.35.37-.63.82-.82,1.36-.2.54-.3,1.19-.3,1.94,0,.8.1,1.48.3,2.04s.47,1.01.82,1.36c.35.35.76.6,1.23.76.47.16.96.24,1.49.24s1.02-.12,1.49-.35c.47-.23.87-.55,1.22-.95.34-.4.61-.87.81-1.4.2-.53.3-1.1.3-1.71s-.1-1.17-.3-1.71c-.2-.53-.47-1-.81-1.39-.34-.39-.75-.7-1.22-.92-.47-.22-.96-.33-1.49-.33Z"/><path class="cls-1" d="M101.4,51.37c-.11-.04-.23-.07-.38-.11-.14-.04-.3-.05-.46-.05-.52,0-1,.08-1.45.25-.45.17-.83.4-1.16.68-.32.29-.58.62-.77,1-.19.38-.28.79-.28,1.21l-.03,7.58h-2.61v-12.79h2.07l.54,1.42c.36-.52.83-.93,1.41-1.24.58-.31,1.31-.47,2.19-.47.57,0,1.23.08,1.96.24l-.67,2.43c-.13-.05-.25-.11-.38-.16Z"/><path class="cls-1" d="M109.83,62.26c-.9,0-1.74-.17-2.52-.52-.78-.35-1.46-.82-2.05-1.43-.58-.61-1.05-1.32-1.39-2.14-.34-.82-.51-1.69-.51-2.62s.17-1.8.51-2.62c.34-.82.8-1.53,1.39-2.13.58-.61,1.27-1.08,2.05-1.43.78-.35,1.62-.52,2.52-.52s1.71.17,2.5.52c.79.35,1.48.82,2.06,1.43.58.6,1.04,1.32,1.39,2.13.34.82.51,1.69.51,2.62s-.17,1.8-.51,2.62c-.34.82-.8,1.53-1.39,2.14-.58.6-1.27,1.08-2.06,1.43-.79.35-1.62.52-2.5.52ZM109.81,51.15c-.52,0-1.02.12-1.49.35-.47.23-.88.54-1.23.94-.35.39-.63.86-.82,1.39s-.3,1.11-.3,1.71.1,1.18.3,1.71c.2.54.47,1,.82,1.41.35.4.76.72,1.23.95.47.23.96.35,1.49.35s1.02-.12,1.49-.35c.47-.23.87-.55,1.22-.95.34-.4.61-.87.81-1.41.2-.54.3-1.11.3-1.71s-.1-1.18-.3-1.71c-.2-.54-.47-1-.81-1.39-.34-.39-.75-.71-1.22-.94-.47-.23-.96-.35-1.49-.35Z"/><path class="cls-1" d="M120.25,61.94v-10.49h-2.21v-1.77l2.21-.53v-1.55c0-.91.12-1.7.35-2.36.23-.67.55-1.21.96-1.64.4-.43.87-.74,1.39-.95.52-.2,1.08-.31,1.67-.31.74,0,1.48.15,2.23.45v1.89c-.65-.2-1.2-.29-1.67-.29-.74,0-1.31.22-1.71.67-.4.45-.61,1.16-.61,2.14v1.95h3.98v2.3h-3.98v10.49h-2.61Z"/><path class="cls-1" d="M134.73,62.26c-.93,0-1.81-.17-2.62-.52-.82-.35-1.53-.82-2.14-1.43-.61-.61-1.09-1.32-1.44-2.14-.35-.82-.52-1.69-.52-2.62s.17-1.8.5-2.62c.33-.82.78-1.53,1.35-2.13.57-.61,1.22-1.08,1.98-1.43.75-.35,1.56-.52,2.42-.52s1.69.15,2.44.45c.75.3,1.39.77,1.94,1.42s.97,1.45,1.28,2.44c.3.99.46,2.17.46,3.54h-9.58c.13.46.32.89.59,1.29.27.4.59.75.96,1.04.37.29.78.52,1.24.68.46.16.94.24,1.44.24.68,0,1.32-.12,1.9-.37s1.08-.58,1.49-.99l1.62,1.6c-.63.62-1.4,1.12-2.3,1.5s-1.9.56-2.97.56ZM134.25,51.21c-.41,0-.8.08-1.17.24s-.71.38-1.02.67c-.31.29-.58.62-.81,1.01-.22.39-.39.82-.5,1.28h6.81c-.04-.43-.13-.84-.3-1.23-.16-.39-.39-.73-.67-1.03s-.62-.52-1.01-.69c-.39-.17-.83-.25-1.33-.25Z"/><path class="cls-1" d="M148.89,59.27c.16-.14.31-.3.43-.48.12-.18.19-.38.19-.61,0-.28-.1-.52-.31-.72-.21-.2-.46-.36-.75-.49-.3-.13-.61-.24-.93-.31-.32-.07-.59-.13-.81-.19-.59-.14-1.15-.32-1.67-.52-.52-.21-.97-.45-1.36-.75s-.69-.64-.92-1.04c-.22-.4-.34-.88-.34-1.43,0-.52.12-1,.37-1.46s.58-.85,1-1.2c.42-.35.91-.62,1.47-.83.56-.21,1.16-.31,1.79-.31.56,0,1.09.08,1.59.24.5.16.96.38,1.36.66.4.28.74.62,1.02,1.01s.46.83.55,1.31l-2.34.56c-.11-.43-.34-.78-.7-1.07-.36-.28-.85-.43-1.48-.43-.22,0-.44.03-.67.09-.23.06-.45.16-.65.28s-.36.28-.5.45-.2.38-.2.61c0,.25.08.46.23.64.15.18.34.32.55.44.21.12.45.21.7.28.25.07.49.13.7.19.95.23,1.74.48,2.37.75.63.27,1.13.56,1.51.88s.64.67.79,1.05c.15.38.23.81.23,1.29,0,.57-.13,1.1-.39,1.6s-.62.93-1.07,1.29c-.46.36-1,.65-1.64.85s-1.32.31-2.05.31c-1.11,0-2.1-.27-2.97-.81s-1.45-1.27-1.76-2.18l2.21-.99c.29.62.65,1.05,1.1,1.27.45.22.96.33,1.53.33.72,0,1.32-.2,1.8-.59Z"/><path class="cls-1" d="M160.47,59.27c.16-.14.31-.3.43-.48.12-.18.19-.38.19-.61,0-.28-.1-.52-.31-.72-.21-.2-.46-.36-.75-.49-.3-.13-.61-.24-.93-.31-.32-.07-.59-.13-.81-.19-.59-.14-1.15-.32-1.67-.52-.52-.21-.97-.45-1.36-.75s-.69-.64-.92-1.04c-.22-.4-.34-.88-.34-1.43,0-.52.12-1,.37-1.46s.58-.85,1-1.2c.42-.35.91-.62,1.47-.83.56-.21,1.16-.31,1.79-.31.56,0,1.09.08,1.59.24.5.16.96.38,1.36.66.4.28.74.62,1.02,1.01s.46.83.55,1.31l-2.34.56c-.11-.43-.34-.78-.7-1.07-.36-.28-.85-.43-1.48-.43-.22,0-.44.03-.67.09-.23.06-.45.16-.65.28s-.36.28-.5.45-.2.38-.2.61c0,.25.08.46.23.64.15.18.34.32.55.44.21.12.45.21.7.28.25.07.49.13.7.19.95.23,1.74.48,2.37.75.63.27,1.13.56,1.51.88s.64.67.79,1.05c.15.38.23.81.23,1.29,0,.57-.13,1.1-.39,1.6s-.62.93-1.07,1.29c-.46.36-1,.65-1.64.85s-1.32.31-2.05.31c-1.11,0-2.1-.27-2.97-.81s-1.45-1.27-1.76-2.18l2.21-.99c.29.62.65,1.05,1.1,1.27.45.22.96.33,1.53.33.72,0,1.32-.2,1.8-.59Z"/><path class="cls-1" d="M167.44,46.37c-.47,0-.86-.16-1.18-.49-.32-.33-.48-.73-.48-1.19s.16-.85.48-1.17c.32-.32.72-.48,1.18-.48s.86.16,1.18.48c.32.32.49.71.49,1.17s-.16.86-.49,1.19c-.32.33-.72.49-1.18.49ZM168.79,61.94h-2.64v-12.79h2.61l.03,12.79Z"/><path class="cls-1" d="M177.35,62.26c-.9,0-1.74-.17-2.52-.52-.78-.35-1.46-.82-2.05-1.43-.58-.61-1.05-1.32-1.39-2.14-.34-.82-.51-1.69-.51-2.62s.17-1.8.51-2.62c.34-.82.8-1.53,1.39-2.13.58-.61,1.27-1.08,2.05-1.43.78-.35,1.62-.52,2.52-.52s1.71.17,2.5.52c.79.35,1.48.82,2.06,1.43.58.6,1.04,1.32,1.39,2.13.34.82.51,1.69.51,2.62s-.17,1.8-.51,2.62c-.34.82-.8,1.53-1.39,2.14-.58.6-1.27,1.08-2.06,1.43-.79.35-1.62.52-2.5.52ZM177.33,51.15c-.52,0-1.02.12-1.49.35-.47.23-.88.54-1.23.94-.35.39-.63.86-.82,1.39s-.3,1.11-.3,1.71.1,1.18.3,1.71c.2.54.47,1,.82,1.41.35.4.76.72,1.23.95.47.23.96.35,1.49.35s1.02-.12,1.49-.35c.47-.23.87-.55,1.22-.95.34-.4.61-.87.81-1.41.2-.54.3-1.11.3-1.71s-.1-1.18-.3-1.71c-.2-.54-.47-1-.81-1.39-.34-.39-.75-.71-1.22-.94-.47-.23-.96-.35-1.49-.35Z"/><path class="cls-1" d="M188.47,61.94h-2.61v-12.79h2.07l.54,1.12c.43-.41.95-.75,1.56-1.01.61-.27,1.27-.4,1.99-.4.47,0,1,.07,1.59.21.59.14,1.14.41,1.66.8.51.39.94.93,1.29,1.63.35.69.53,1.59.53,2.7v7.74h-2.48v-7.77c0-.55-.08-1.02-.26-1.4s-.39-.69-.67-.92-.59-.4-.94-.49c-.35-.1-.71-.15-1.09-.15-.29,0-.62.05-.98.16-.37.11-.71.28-1.04.52s-.6.54-.82.91c-.22.37-.34.81-.34,1.35v7.79Z"/><path class="cls-1" d="M212.51,49.15v12.79h-2.21l-.4-1.47c-.45.59-1.02,1.03-1.72,1.33-.7.3-1.41.45-2.13.45-.9,0-1.74-.17-2.52-.52-.78-.35-1.46-.82-2.05-1.43-.58-.61-1.05-1.32-1.39-2.14-.34-.82-.51-1.69-.51-2.62s.17-1.8.51-2.62c.34-.82.8-1.53,1.39-2.13.58-.61,1.26-1.08,2.05-1.43.78-.35,1.62-.52,2.52-.52.72,0,1.41.14,2.07.41.66.28,1.26.71,1.78,1.29l.4-1.42h2.21ZM206.04,59.96c.52,0,1.01-.12,1.48-.35.47-.23.87-.55,1.21-.95s.61-.87.81-1.4c.2-.53.3-1.1.3-1.71s-.1-1.17-.3-1.71c-.2-.53-.47-1-.81-1.4s-.75-.72-1.21-.95c-.47-.23-.96-.35-1.48-.35s-1.01.12-1.48.35c-.47.23-.87.55-1.21.95-.34.4-.61.87-.81,1.4-.2.53-.3,1.1-.3,1.71s.1,1.17.3,1.71c.2.53.47,1,.81,1.4.34.4.74.72,1.21.95s.96.35,1.48.35Z"/><path class="cls-1" d="M217.92,42.45v19.49h-2.61v-19.49h2.61Z"/><path class="cls-1" d="M226.88,59.27c.16-.14.31-.3.43-.48.12-.18.19-.38.19-.61,0-.28-.1-.52-.31-.72-.21-.2-.46-.36-.75-.49-.3-.13-.61-.24-.93-.31-.32-.07-.59-.13-.81-.19-.59-.14-1.15-.32-1.67-.52-.52-.21-.97-.45-1.36-.75s-.69-.64-.92-1.04c-.22-.4-.34-.88-.34-1.43,0-.52.12-1,.37-1.46s.58-.85,1-1.2c.42-.35.91-.62,1.47-.83.56-.21,1.16-.31,1.79-.31.56,0,1.09.08,1.59.24.5.16.96.38,1.36.66.4.28.74.62,1.02,1.01s.46.83.55,1.31l-2.34.56c-.11-.43-.34-.78-.7-1.07-.36-.28-.85-.43-1.48-.43-.22,0-.44.03-.67.09-.23.06-.45.16-.65.28s-.36.28-.5.45-.2.38-.2.61c0,.25.08.46.23.64.15.18.34.32.55.44.21.12.45.21.7.28.25.07.49.13.7.19.95.23,1.74.48,2.37.75.63.27,1.13.56,1.51.88s.64.67.79,1.05c.15.38.23.81.23,1.29,0,.57-.13,1.1-.39,1.6s-.62.93-1.07,1.29c-.46.36-1,.65-1.64.85s-1.32.31-2.05.31c-1.11,0-2.1-.27-2.97-.81s-1.45-1.27-1.76-2.18l2.21-.99c.29.62.65,1.05,1.1,1.27.45.22.96.33,1.53.33.72,0,1.32-.2,1.8-.59Z"/></g></svg>